<svg xmlns="http://www.w3.org/2000/svg" width="320" height="320" viewBox="0 0 320 320" version="1.1"><path d="M 1.158 123 C 1.158 124.375, 1.385 124.938, 1.662 124.250 C 1.940 123.563, 1.940 122.438, 1.662 121.750 C 1.385 121.063, 1.158 121.625, 1.158 123 M 117.250 149.716 C 118.763 149.945, 121.237 149.945, 122.750 149.716 C 124.263 149.487, 123.025 149.300, 120 149.300 C 116.975 149.300, 115.737 149.487, 117.250 149.716 M 252 150.882 C 238.405 154.949, 227.580 163.203, 221.116 174.432 C 218.301 179.322, 216.579 184.554, 214.920 193.250 C 213.528 200.549, 214.454 208.752, 217.713 218 C 219.700 223.637, 228.781 237, 230.625 237 C 231.381 237, 232 237.406, 232 237.903 C 232 238.970, 241.617 245.429, 244.500 246.298 C 262.522 251.731, 264.638 251.911, 275.678 248.952 C 284.992 246.456, 291.909 243.401, 292.657 241.452 C 292.963 240.654, 293.741 240, 294.384 240 C 297.485 240, 304.857 231.016, 309.564 221.500 C 314.480 211.563, 315.867 201.202, 313.697 190.635 C 312.273 183.699, 311.045 180.565, 306.592 172.500 C 302.917 165.843, 294.188 157.967, 286.737 154.585 C 273.896 148.757, 262.989 147.594, 252 150.882 M 13.500 152 C 14.495 153.100, 15.535 154, 15.810 154 C 16.085 154, 15.495 153.100, 14.500 152 C 13.505 150.900, 12.465 150, 12.190 150 C 11.915 150, 12.505 150.900, 13.500 152 M 70.252 200.500 C 70.263 202.700, 70.468 203.482, 70.707 202.238 C 70.946 200.994, 70.937 199.194, 70.687 198.238 C 70.437 197.282, 70.241 198.300, 70.252 200.500" stroke="none" fill="#ffcd00" fill-rule="evenodd"/><path d="M 181.800 69.343 C 179.765 70.106, 176.657 71.019, 174.894 71.371 C 171.537 72.043, 162.668 77.528, 159.864 80.668 C 158.964 81.676, 157.356 83.175, 156.291 84 C 151.947 87.366, 145.501 99.111, 143.944 106.500 C 141.089 120.047, 142.138 129.484, 147.779 141 C 152.253 150.134, 160.206 158.421, 168.628 162.725 C 171.614 164.251, 175.282 166.175, 176.779 166.999 C 178.809 168.117, 182.803 168.494, 192.500 168.483 C 204.038 168.470, 205.950 168.219, 209.500 166.252 C 211.700 165.032, 214.625 163.578, 216 163.020 C 219.989 161.400, 221.998 159.858, 227.926 153.864 C 233.271 148.458, 235.116 145.539, 240.159 134.500 C 242.104 130.242, 242.439 127.867, 242.416 118.500 C 242.392 109.155, 242.058 106.866, 240.194 103.290 C 238.987 100.974, 238 98.567, 238 97.941 C 238 96.467, 230.932 85, 230.025 85 C 229.644 85, 228.021 83.640, 226.417 81.978 C 221.751 77.145, 215.416 73.189, 208.721 70.928 C 200.769 68.242, 186.914 67.427, 181.800 69.343" stroke="none" fill="#00b0ff" fill-rule="evenodd"/><path d="M 109 151.378 C 92.837 154.675, 81.332 165.264, 72.573 184.905 C 71.976 186.244, 71.509 193.340, 71.521 200.905 C 71.538 211.916, 71.870 215.070, 73.265 217.500 C 74.212 219.150, 74.990 220.985, 74.994 221.579 C 75.010 224.428, 83.619 235.308, 89.582 240.014 C 97.909 246.587, 110.197 250.997, 120.204 251.004 C 126.392 251.009, 143.097 246.638, 143.833 244.822 C 144.017 244.370, 144.749 244, 145.462 244 C 147.468 244, 161 230.719, 161 228.750 C 161 227.787, 161.449 227, 161.998 227 C 163.210 227, 168 217.322, 168 214.872 C 168 213.907, 168.450 212.840, 169 212.500 C 169.566 212.150, 170 207.235, 170 201.177 C 170 189.553, 168.371 183.182, 163.529 175.864 C 162.138 173.762, 160.985 171.696, 160.967 171.271 C 160.910 169.964, 157.243 166, 156.090 166 C 155.490 166, 155 165.350, 155 164.557 C 155 163.763, 153.650 162.316, 152 161.341 C 150.350 160.366, 149 159.278, 149 158.922 C 149 157.697, 136.492 152.202, 131.201 151.102 C 124.774 149.766, 116.395 149.870, 109 151.378" stroke="none" fill="#00f014" fill-rule="evenodd"/><path d="M 37.155 70.061 C 33.665 71.069, 29.615 72.706, 28.155 73.697 C 26.695 74.689, 24.979 75.725, 24.342 76 C 21.947 77.033, 10 88.441, 10 89.694 C 10 90.412, 9.585 91, 9.078 91 C 8.570 91, 7.631 92.688, 6.990 94.750 C 6.349 96.813, 4.903 100.525, 3.775 103 C 2.098 106.681, 1.730 109.501, 1.751 118.500 C 1.775 128.054, 2.106 130.223, 4.272 135 C 5.643 138.025, 7.088 141.558, 7.482 142.852 C 7.877 144.146, 11.343 148.513, 15.184 152.557 C 20.792 158.461, 23.878 160.744, 30.835 164.135 C 39.478 168.348, 39.530 168.359, 51 168.375 C 62.487 168.392, 62.510 168.387, 71.500 164.113 C 78.570 160.751, 81.843 158.440, 86.762 153.335 C 90.207 149.761, 93.944 144.736, 95.067 142.168 C 96.190 139.601, 97.508 136.600, 97.995 135.500 C 99.392 132.347, 101 123.312, 101 118.618 C 101 106.961, 96.232 93.955, 88.860 85.500 C 86.462 82.750, 84.154 80.347, 83.732 80.161 C 83.310 79.974, 82.409 79.266, 81.730 78.587 C 79.640 76.497, 68.780 71.162, 63.312 69.540 C 56.546 67.532, 45.117 67.759, 37.155 70.061" stroke="none" fill="#ff1d00" fill-rule="evenodd"/></svg>